<svg xmlns="http://www.w3.org/2000/svg" viewBox="0 0 256 256" role="img" aria-labelledby="title desc">
  <title id="title">Biblioteca Municipal</title>
  <desc id="desc">Logo circular con un libro abierto</desc>
  <defs>
    <linearGradient id="bg" x1="0" y1="0" x2="1" y2="1">
      <stop offset="0" stop-color="#252c70"/>
      <stop offset="1" stop-color="#443080"/>
    </linearGradient>
  </defs>
  <circle cx="128" cy="128" r="124" fill="url(#bg)" stroke="#e9bf4a" stroke-width="2"/>
  <circle cx="128" cy="128" r="111" fill="none" stroke="#9d8a58" stroke-width="1" opacity=".7"/>
  <g fill="none" stroke="#f0c64f" stroke-width="3" stroke-linejoin="round">
    <path d="M128 111c-18-10-37-12-57-4v49c20-8 39-6 57 4z"/>
    <path d="M128 111c18-10 37-12 57-4v49c-20-8-39-6-57 4z"/>
    <path d="M128 111v49"/>
    <path d="M79 120h32M79 132h32M79 144h32M145 120h32M145 132h32M145 144h32" stroke-width="1.5"/>
  </g>
  <path d="M64 130l-9 6 9 6M192 130l9 6-9 6" fill="none" stroke="#c8a94e" stroke-width="2"/>
</svg>
